<?xml version="1.0" standalone="no"?>
<!DOCTYPE svg PUBLIC "-//W3C//DTD SVG 20010904//EN"
 "http://www.w3.org/TR/2001/REC-SVG-20010904/DTD/svg10.dtd">
<svg version="1.0" xmlns="http://www.w3.org/2000/svg"
 width="512.000000pt" height="512.000000pt" viewBox="0 0 512.000000 512.000000"
 preserveAspectRatio="xMidYMid meet">
<metadata>
Created by potrace 1.14, written by Peter Selinger 2001-2017
</metadata>
<g transform="translate(0.000000,512.000000) scale(0.100000,-0.100000)"
fill="#000000" stroke="none">
<path d="M40 4482 c-40 -14 -39 37 -40 -1922 0 -1037 4 -1890 8 -1897 15 -23
60 -29 215 -28 128 1 160 4 173 17 13 13 15 67 16 422 l0 406 2148 0 2148 0 1
-407 c0 -353 2 -408 15 -422 13 -13 46 -15 192 -15 162 0 177 1 190 19 12 16
14 171 14 947 l0 928 -25 16 c-38 25 -165 15 -229 -17 -60 -29 -122 -98 -139
-153 -11 -36 -13 -13 -17 199 -5 231 -6 242 -30 288 -29 58 -77 102 -139 131
-46 20 -48 20 -1833 21 -982 0 -1784 3 -1782 6 2 4 16 10 31 14 102 25 193
161 187 280 -2 57 -147 609 -175 670 -66 141 -227 205 -374 147 -75 -30 -151
-115 -173 -193 -7 -25 -10 11 -10 131 -1 182 -2 191 -30 252 -42 94 -140 156
-258 162 -38 1 -76 1 -84 -2z m415 -817 c20 -77 42 -162 50 -190 92 -335 83
-312 139 -370 28 -29 68 -58 89 -66 20 -7 37 -15 37 -19 0 -3 -34 -6 -75 -7
-55 -1 -87 -7 -122 -24 -66 -32 -125 -96 -144 -155 -15 -46 -16 -18 -17 464 0
283 1 512 3 510 2 -2 20 -66 40 -143z"/>
</g>
</svg>
